<?xml version="1.0" encoding="utf-8"?>
<!-- Generator: Adobe Illustrator 24.2.0, SVG Export Plug-In . SVG Version: 6.00 Build 0)  -->
<svg version="1.1" id="Layer_1" xmlns="http://www.w3.org/2000/svg" xmlns:xlink="http://www.w3.org/1999/xlink" x="0px" y="0px"
	 viewBox="0 0 1241 1241" enable-background="new 0 0 1241 1241" xml:space="preserve">
<g>
	<path fill="#273E74" d="M613.735,90.606c7.264-0.632,14.527-1.211,21.804-1.776c-9.198,11.264-18.449,22.475-27.647,33.726
		c11.922,15.475,23.91,30.936,35.831,46.424c-6.987,0.592-13.988,1.158-20.975,1.697c-8.356-11.961-16.738-23.923-25.107-35.884
		c-4.04,4.816-8.053,9.659-12.067,14.488c0.632,8.093,1.316,16.185,1.961,24.278c-5.408,0.434-10.803,0.882-16.185,1.303
		c-2.198-26.765-4.369-53.53-6.527-80.295c5.395-0.447,10.79-0.895,16.198-1.316c0.961,11.882,1.908,23.752,2.908,35.621
		C593.891,116.134,603.8,103.37,613.735,90.606z"/>
	<path fill="#273E74" d="M658.948,91.395c5.382,0.447,10.79,0.895,16.185,1.355c-0.869,10.527-1.737,21.041-2.645,31.555
		c10.58,0.895,21.172,1.79,31.752,2.645c0.895-10.514,1.75-21.028,2.632-31.542c5.382,0.421,10.777,0.868,16.172,1.316
		c-2.198,26.739-4.421,53.477-6.645,80.229c-5.395-0.447-10.79-0.882-16.172-1.342c0.947-11.685,1.934-23.383,2.882-35.081
		c-10.58-0.868-21.146-1.763-31.726-2.619c-0.987,11.685-1.934,23.37-2.921,35.055c-5.408-0.434-10.79-0.882-16.172-1.329
		C654.501,144.886,656.711,118.147,658.948,91.395z"/>
	<g>
		<path fill="#273E74" d="M768.943,109.515c17.356-3.29,38.029,4.224,45.937,20.817c5.54,11.396,3.777,24.844-0.487,36.358
			c-3.54,9.79-10.435,18.764-20.172,22.975c-11.224,5.132-24.41,3.119-35.266-2c-9.29-4.329-16.606-12.777-19.12-22.752
			c-2.934-11.488-0.118-23.607,4.566-34.226C748.902,120.476,758.034,112.239,768.943,109.515z M774.075,123.766
			c-9.448,2.54-14.619,11.948-16.962,20.765c-2.434,8.251-2.974,18.041,2.526,25.225c7.5,10.488,24.896,11.619,33.134,1.408
			c6.764-8.645,10.027-20.278,8.658-31.16C799.563,127.753,785.483,120.608,774.075,123.766z"/>
	</g>
	<path fill="#273E74" d="M463.764,115.831c10.185-5.487,23.081-7.593,33.792-2.355c5.619,2.592,9.685,7.461,12.988,12.527
		c-4.763,2.684-9.54,5.316-14.29,8.014c-3.553-5.987-10.343-10.264-17.462-8.922c-9.33,0.895-17.054,9.382-16.725,18.817
		c0.25,10.132,3.171,20.488,8.987,28.857c6.171,8.83,20.344,9.566,27.555,1.671c4.211-4.395,4.79-10.751,4.816-16.527
		c5.487,0.184,10.988,0.355,16.488,0.566c-0.145,8.211-1.816,16.883-7.343,23.265c-6.711,7.829-17.133,11.672-27.226,12.29
		c-12.646,0.684-25.015-6.553-31.344-17.396c-5.474-9.448-8.356-20.475-8.066-31.397
		C446.21,133.214,453.092,121.503,463.764,115.831z"/>
	<g>
		<path fill="#273E74" d="M809.498,201.877c20.712-20.028,41.437-40.042,62.175-60.044c5.198,2.395,10.409,4.79,15.606,7.198
			c-1.447,28.884-2.934,57.767-4.395,86.651c-5.356-2.461-10.711-4.908-16.054-7.395c0.408-6.514,0.829-13.027,1.25-19.554
			c-9.751-4.5-19.501-9.027-29.278-13.461c-4.54,4.619-9.093,9.224-13.659,13.817C819.92,206.693,814.696,204.298,809.498,201.877z
			 M849.08,185.007c6.632,3.092,13.277,6.145,19.936,9.185c0.803-10.58,1.645-21.159,2.421-31.739
			C863.976,169.967,856.515,177.48,849.08,185.007z"/>
	</g>
	<g>
		<path fill="#273E74" d="M385.904,144.82c9.909-2.921,21.067-1.276,29.581,4.632c8.724,6.04,14.501,15.448,18.251,25.212
			c3.592,9.369,4.092,20.212-0.237,29.436c-5.04,11.224-16.146,18.514-27.607,21.975c-10.251,3.119-21.883,1.276-30.515-5.119
			c-8.843-6.487-14.435-16.448-18.028-26.62c-4-11.238-2.605-24.554,4.658-34.173C368.008,152.61,376.745,147.544,385.904,144.82z
			 M387.127,159.097c-6.658,2.158-12.738,7.093-14.804,13.948c-2.54,7.869,0.342,16.198,4.027,23.199
			c3.619,6.908,9.145,13.619,17.014,15.646c11.817,3.408,25.594-5.527,26.699-17.935c0.79-10.014-4.04-19.607-9.961-27.357
			C404.892,159.729,395.431,156.097,387.127,159.097z"/>
	</g>
	<path fill="#273E74" d="M307.135,189.744c4.382-3.184,8.777-6.356,13.185-9.514c15.698,21.778,31.423,43.529,47.108,65.32
		c-4.382,3.198-8.777,6.356-13.172,9.514c-6.882-9.514-13.725-19.028-20.62-28.528c-8.619,6.198-17.225,12.409-25.831,18.633
		c6.869,9.514,13.738,19.028,20.607,28.528c-4.382,3.198-8.777,6.369-13.185,9.54c-15.712-21.765-31.41-43.529-47.108-65.294
		c4.369-3.184,8.764-6.356,13.159-9.514c6.198,8.54,12.356,17.133,18.567,25.686c8.619-6.211,17.225-12.435,25.831-18.659
		C319.504,206.877,313.293,198.337,307.135,189.744z"/>
	<path fill="#273E74" d="M963.574,191.244c4.263,3.316,8.487,6.685,12.738,10.014c-6.461,8.369-13.106,16.593-19.62,24.896
		c8.316,6.593,16.62,13.198,24.962,19.751c6.593-8.237,13.093-16.554,19.686-24.804c4.237,3.342,8.487,6.711,12.725,10.08
		c-16.646,21.041-33.305,42.069-49.951,63.123c-4.263-3.355-8.527-6.711-12.764-10.093c7.29-9.185,14.567-18.396,21.844-27.594
		c-8.316-6.593-16.62-13.198-24.962-19.751c-7.316,9.159-14.554,18.383-21.857,27.555c-4.263-3.342-8.514-6.698-12.738-10.053
		C930.27,233.313,946.929,212.285,963.574,191.244z"/>
	<path fill="#273E74" d="M409.892,230.944c4.553-2.369,9.119-4.724,13.698-7.066c2.369,4.566,4.724,9.119,7.04,13.711
		c-4.553,2.369-9.119,4.711-13.685,7.053C414.577,240.077,412.234,235.51,409.892,230.944z"/>
	<path fill="#273E74" d="M210.839,271.316c3.698-3.948,7.408-7.895,11.145-11.817c19.514,18.409,39.029,36.818,58.53,55.241
		c-3.711,3.948-7.422,7.882-11.146,11.817C249.855,308.147,230.34,289.738,210.839,271.316z"/>
	<g>
		<path fill="#273E74" d="M1026.763,261.999c9.014-1.816,18.778-0.145,26.304,5.29c10.106,7.145,18.567,18.028,19.62,30.726
			c1.053,10.448-3.316,20.738-10.119,28.489c-7.145,8.172-16.264,15.317-27.094,17.567c-10.014,2.171-20.738-0.645-28.726-6.961
			c-9.303-7.277-16.896-17.922-17.554-30.042c-0.75-10.211,3.671-20.159,10.369-27.686
			C1006.814,271.342,1015.867,264.078,1026.763,261.999z M1030.645,277.632c-6.803,1.882-12.448,6.5-17.251,11.501
			c-4.632,4.869-8.435,11.093-8.487,18.001c-0.421,11.382,9.816,22.015,21.265,21.804c8.08-0.013,15.093-4.908,20.725-10.264
			c5-4.842,9.685-10.803,10.448-17.949C1058.976,286.856,1044.29,273.631,1030.645,277.632z"/>
	</g>
	<g>
		<path fill="#273E74" d="M670.318,340.807c22.541-18.672,45.148-37.239,67.873-55.675c-27.383,147.8-54.82,295.586-82.229,443.372
			c-43.358-8.698-86.216-21.278-125.93-40.963c-32.423-16.106-62.702-37.331-86.624-64.689
			c-8.251-9.356-14.659-21.291-14.093-34.094c0.289-11.33,6.264-21.383,12.29-30.607c11.869-17.567,26.16-33.331,40.687-48.714
			C540.783,448.736,605.629,394.666,670.318,340.807z M562.863,471.5c-3.619,8.066-2.408,17.225-0.908,25.646
			c-8.04,2.908-16.58,6.448-21.765,13.619c-3.316,4.356-3.237,10.751,0.118,15.067c5.211,7.053,13.646,10.567,21.646,13.422
			c-1.487,8.408-2.724,17.567,0.882,25.62c2.119,5.119,7.75,8.29,13.251,7.487c8.672-1.053,15.883-6.566,22.357-12.027
			c6.487,5.5,13.764,11.04,22.502,12.04c5.382,0.724,10.896-2.369,13.04-7.369c3.658-8.079,2.448-17.291,0.934-25.739
			c8.001-2.882,16.475-6.395,21.686-13.475c3.303-4.303,3.382-10.619,0.132-14.962c-5.171-7.211-13.751-10.764-21.817-13.672
			c1.487-8.382,2.711-17.501-0.842-25.528c-1.961-4.658-6.803-7.935-11.896-7.632c-9.237,0.421-16.962,6.369-23.738,12.093
			c-6.75-5.685-14.396-11.58-23.567-12.093C569.771,463.631,564.863,466.842,562.863,471.5z"/>
	</g>
	<g>
		<path fill="#273E74" d="M179.468,306.621c27.739,8.172,55.438,16.475,83.164,24.673c-3.645,4.632-7.303,9.237-10.961,13.856
			c-6.237-1.934-12.461-3.882-18.685-5.816c-6.672,8.408-13.343,16.804-20.001,25.225c3.408,5.527,6.829,11.04,10.224,16.567
			c-3.566,4.513-7.158,9.001-10.685,13.54c-14.567-24.857-29.134-49.714-43.674-74.584
			C172.376,315.582,175.942,311.121,179.468,306.621z M188.811,325.188c5.514,9.04,11.132,18.014,16.633,27.068
			c4.54-5.75,9.093-11.501,13.646-17.238C208.997,331.728,198.904,328.425,188.811,325.188z"/>
	</g>
	<path fill="#273E74" d="M979.918,339.649c3.75-3.527,7.487-7.053,11.264-10.553c3.513,3.737,7.04,7.461,10.54,11.224
		c-3.737,3.54-7.487,7.066-11.238,10.58C986.944,347.163,983.431,343.413,979.918,339.649z"/>
	<path fill="#273E74" d="M1074.727,342.412c8.856-4.553,19.383-6.658,29.12-3.763c13.685,3.842,23.686,16.633,26.423,30.278
		c1.974,9.474-1.829,19.093-8.211,26.054c-3.948-3.816-7.882-7.645-11.777-11.501c1.829-2.487,3.856-4.987,4.593-8.053
		c2.776-10.369-5.777-21.804-16.37-22.594c-7.593-0.592-14.606,3.198-20.791,7.145c-5.645,3.763-11.422,8.185-14.106,14.633
		c-3.829,9.053,1.448,20.791,10.896,23.673c4.908,1.566,10.106,0.316,14.909-1.066c1.382,5.316,2.776,10.632,4.171,15.948
		c-9.408,2.921-20.33,3.079-28.726-2.671c-12.488-8.632-20.186-25.12-15.896-40.134
		C1052.278,357.427,1063.213,348.176,1074.727,342.412z"/>
	<path fill="#273E74" d="M247.328,361.295c4.027,3.184,8.04,6.369,12.067,9.58c-3.171,4.04-6.369,8.066-9.566,12.093
		c-4.027-3.171-8.04-6.395-12.106-9.54C240.907,369.362,244.104,365.322,247.328,361.295z"/>
	<g>
		<path fill="#273E74" d="M134.952,376.533c8.882-5.303,20.133-4.908,29.568-1.29c8.922,3.474,17.488,8.369,24.094,15.383
			c5.777,6.145,9.948,14.422,9.145,23.041c-0.368,6.461-3.066,12.475-6.198,18.014c-5.132,8.987-10.277,17.935-15.409,26.91
			c-10.185-5.777-20.33-11.632-30.502-17.435c-1.382,2.408-2.777,4.803-4.158,7.211c-2.948-1.671-5.895-3.355-8.843-5.027
			c1.355-2.434,2.737-4.856,4.106-7.277c-10.132-5.829-20.304-11.632-30.449-17.449c5.053-8.869,10.119-17.725,15.212-26.568
			C124.978,386.139,128.86,380.047,134.952,376.533z M138.031,392.732c-4.961,5.461-8.066,12.303-11.856,18.58
			c6.211,3.579,12.448,7.119,18.659,10.698c2.869-4.974,5.698-9.974,8.58-14.948c2.948,1.671,5.895,3.355,8.83,5.066
			c-2.829,4.987-5.711,9.961-8.54,14.962c6.224,3.579,12.475,7.145,18.712,10.711c3.566-6.658,8.145-12.882,10.422-20.133
			c1.632-5.119-0.592-10.606-4.316-14.185c-5.948-5.843-13.369-9.988-21.001-13.211C151.23,387.652,143.071,387.508,138.031,392.732
			z"/>
	</g>
	<path fill="#273E74" d="M1154.469,436.748c4.224-1.658,8.461-3.29,12.711-4.895c7.658,19.896,15.317,39.805,22.949,59.728
		c-4.237,1.645-8.474,3.263-12.698,4.895c-2.869-7.422-5.724-14.83-8.553-22.252c-20.844,7.948-41.634,16.014-62.465,23.975
		c-1.961-5.04-3.908-10.093-5.843-15.146c20.804-8.014,41.621-16.014,62.438-24.002
		C1160.206,451.604,1157.311,444.183,1154.469,436.748z"/>
	<path fill="#273E74" d="M567.89,476.422c1.842-3.448,5.645-5.685,9.566-5.566c6.829,0.118,12.725,4.119,18.028,8.027
		c-4.224,4.342-8.145,8.961-11.777,13.804c-6.027,0.737-12.001,1.803-17.883,3.303C565.179,489.475,564.574,482.369,567.89,476.422z
		"/>
	<path fill="#273E74" d="M601.405,478.882c5.329-3.934,11.264-7.974,18.159-8.027c3.921-0.079,7.698,2.237,9.514,5.711
		c3.198,5.935,2.632,12.961,1.948,19.436c-5.869-1.513-11.843-2.579-17.857-3.316C609.537,487.83,605.616,483.225,601.405,478.882z"
		/>
	<path fill="#273E74" d="M588.312,492.278c3.171-3.803,6.514-7.461,10.132-10.843c3.606,3.382,6.948,7.04,10.132,10.843
		C601.826,491.87,595.049,491.883,588.312,492.278z"/>
	<path fill="#273E74" d="M82.725,491.317c5.356-3.921,12.093-5.25,18.633-5.079c-0.461,5.435-0.961,10.869-1.474,16.304
		c-5.553,0.368-11.159,2.75-14.251,7.566c-4.737,7.369-5.777,17.685-0.79,25.212c3.487,5.395,9.461,8.553,15.422,10.474
		c6.54,2.026,13.619,3.329,20.396,1.697c6.579-1.605,12.159-6.619,14.488-12.988c2.987-7.277,2.013-15.462-0.434-22.752
		c-3.329-0.934-6.645-1.869-9.961-2.803c-1.697,5.974-3.369,11.948-5.066,17.909c-4.356-1.211-8.711-2.434-13.067-3.671
		c3.171-11.251,6.329-22.502,9.527-33.752c10.33,2.895,20.633,5.856,30.963,8.711c6.724,15.027,5.987,33.252-1.974,47.674
		c-5.198,9.54-14.764,16.777-25.646,18.238c-15.909,2.342-33.45-3.027-44.042-15.448c-7.145-8.474-9.724-20.304-7.303-31.055
		C70.237,507.7,74.198,497.344,82.725,491.317z"/>
	<g>
		<path fill="#273E74" d="M585.628,495.897c8.527-0.803,17.106-0.803,25.633,0.013c5.066,6.935,9.316,14.448,12.922,22.265
			c-3.566,7.856-7.829,15.409-12.961,22.357c-8.395,0.658-16.896,1.026-25.252-0.105c-5.711-6.448-9.54-14.514-13.251-22.278
			C576.311,510.345,580.548,502.831,585.628,495.897z M593.681,508.963c-7.132,3.263-7.487,14.462-0.592,18.172
			c6.224,4.119,15.475-0.711,15.725-8.132C609.761,511.253,600.471,505.029,593.681,508.963z"/>
	</g>
	<path fill="#273E74" d="M566.6,499.818c4.724-1.434,9.553-2.513,14.435-3.329c-3.724,5.619-7.093,11.461-10.106,17.488
		C569.192,509.345,567.705,504.634,566.6,499.818z"/>
	<path fill="#273E74" d="M615.84,496.489c4.869,0.816,9.698,1.895,14.435,3.329c-1.105,4.816-2.592,9.54-4.329,14.172
		C622.933,507.95,619.564,502.108,615.84,496.489z"/>
	<path fill="#273E74" d="M547.125,512.371c3.592-5.645,9.843-8.685,15.777-11.251c1.645,5.803,3.658,11.501,6.066,17.041
		c-2.355,5.592-4.421,11.303-6.066,17.146c-5.843-2.54-11.988-5.514-15.606-10.988C544.862,520.806,544.77,515.937,547.125,512.371z
		"/>
	<path fill="#273E74" d="M627.92,518.135c2.395-5.527,4.408-11.211,6.053-17.014c5.935,2.566,12.211,5.619,15.791,11.277
		c2.29,3.5,2.25,8.251-0.053,11.738c-3.606,5.592-9.843,8.606-15.738,11.185C632.341,529.452,630.236,523.754,627.92,518.135z"/>
	<path fill="#273E74" d="M1147.705,523.741c16.488-4.158,33.134-7.685,49.701-11.553c1.224,5.277,2.421,10.566,3.632,15.843
		c-16.356,3.816-32.752,7.395-49.082,11.33c-4.724,1.158-10.027,2.75-12.567,7.303c-2.974,5.461-1.605,12.185,0.724,17.633
		c1.776,4.356,6.303,7.501,11.093,6.935c7.698-0.605,15.159-2.855,22.699-4.448c11.409-2.605,22.804-5.237,34.226-7.83
		c1.197,5.277,2.421,10.567,3.619,15.856c-9.369,2.158-18.751,4.25-28.094,6.448c1.895,3.579,3.948,7.514,7.803,9.33
		c2.513,1.276,5.421,0.632,8.145,0.658c-0.539-2.526-1.092-5.04-1.619-7.54c5-1.145,10.001-2.29,15.014-3.421
		c1.158,5.013,2.303,10.014,3.448,15.04c-7.619,1.447-15.225,4.474-23.08,3.474c-8.145-1.434-12.883-9.093-15.804-16.146
		c-10.053,2.04-20.107,5.277-30.463,4.724c-10.211-0.75-17.62-9.553-20.488-18.778c-3.211-10.185-5.29-22.107,0.105-31.91
		C1130.902,528.899,1139.679,525.846,1147.705,523.741z"/>
	<path fill="#273E74" d="M566.587,536.584c1.132-4.816,2.632-9.54,4.342-14.185c2.987,6.053,6.382,11.909,10.119,17.541
		C576.167,539.11,571.324,538.044,566.587,536.584z"/>
	<path fill="#273E74" d="M625.959,522.438c1.711,4.632,3.25,9.343,4.263,14.198c-4.711,1.395-9.527,2.448-14.369,3.316
		C619.551,534.307,622.933,528.465,625.959,522.438z"/>
	<path fill="#273E74" d="M565.811,540.452c5.895,1.474,11.882,2.54,17.922,3.316c3.619,4.829,7.54,9.448,11.751,13.79
		c-5.329,3.895-11.211,7.908-18.067,8.014c-4.224,0.132-8.211-2.526-9.948-6.343C564.639,553.401,565.205,546.69,565.811,540.452z"
		/>
	<path fill="#273E74" d="M613.143,543.768c6.014-0.776,12.001-1.829,17.896-3.316c0.645,6.224,1.184,12.896-1.592,18.725
		c-1.737,3.803-5.685,6.5-9.909,6.395c-6.882-0.066-12.803-4.119-18.146-8.027C605.603,553.216,609.524,548.611,613.143,543.768z"/>
	<path fill="#273E74" d="M588.325,544.163c6.724,0.382,13.475,0.368,20.212,0c-3.145,3.803-6.487,7.448-10.093,10.803
		C594.813,551.611,591.483,547.953,588.325,544.163z"/>
	<path fill="#273E74" d="M1102.965,559.282c5.014-1.171,10.027-2.329,15.054-3.448c1.145,5,2.29,10.014,3.434,15.027
		c-5.014,1.171-10.027,2.316-15.041,3.448C1105.242,569.296,1104.097,564.283,1102.965,559.282z"/>
	<path fill="#273E74" d="M55.684,577.626c26.607,3.553,53.227,6.948,79.808,10.645c-0.711,5.342-1.434,10.698-2.119,16.054
		c-18.738,8.487-37.542,16.856-56.293,25.318c17.33,2.342,34.66,4.592,51.99,6.908c-0.645,4.974-1.303,9.961-1.948,14.948
		c-26.62-3.461-53.214-7.04-79.821-10.54c0.671-5.224,1.369-10.448,2.066-15.672c19.199-8.553,38.397-17.067,57.583-25.633
		c-17.738-2.369-35.502-4.685-53.24-7.053C54.355,587.6,55.013,582.613,55.684,577.626z"/>
	<path fill="#273E74" d="M410.208,615.813c22.541,34.134,55.662,59.899,91.388,79.111c22.225,12.04,45.648,21.686,69.452,30.107
		c26.133,8.395,52.859,14.738,79.519,21.238c22.567,5.632,45.622,9.698,67.505,17.791c35.016,12.58,67.781,33.529,90.651,63.241
		c20.265,26.844,27.739,61.307,26.91,94.441c-4.119,0.013-8.237,0.013-12.343,0.013c1.053-24.383-3.066-49.359-14.448-71.123
		c-15.738-30.594-44.069-52.793-74.689-67.307c-22.37-9.948-46.122-16.304-69.86-22.001c-22.225-5.408-44.911-8.751-66.86-15.264
		c-25.712-7.145-50.951-16.12-75.255-27.16c-15.856-7.277-31.594-15.014-46.069-24.791c-19.567-12.882-39.213-26.291-54.806-43.977
		c-3.605-3.513-7.54-7.106-8.974-12.119C410.471,630.787,409.8,623.247,410.208,615.813z"/>
	<path fill="#273E74" d="M1140.35,653.026c26.818,0.908,53.635,1.816,80.466,2.737c-0.171,5.25-0.369,10.501-0.513,15.764
		c-18.251,10.435-36.582,20.738-54.859,31.134c17.909,0.632,35.805,1.224,53.714,1.842c-0.171,5.027-0.342,10.053-0.513,15.093
		c-26.818-0.895-53.648-1.829-80.466-2.724c0.158-5.382,0.395-10.751,0.474-16.12c17.738-10.488,35.779-20.501,53.622-30.831
		c-17.488-0.632-34.963-1.197-52.438-1.803C1139.981,663.079,1140.152,658.052,1140.35,653.026z"/>
	<g>
		<path fill="#273E74" d="M414.774,658.592c29.094,29.186,64.268,51.859,101.823,68.584c42.266,18.685,86.69,32.529,132.127,40.99
			c22.344,4.527,44.556,10.04,65.991,17.909c16.106,5.948,31.871,13.356,45.635,23.752c15.659,10.435,28.962,24.541,37.647,41.292
			c11.396,21.607,15.264,46.398,15.014,70.61c-120.784-0.132-241.569-0.289-362.354-0.421
			c-8.527-53.306-15.185-106.889-22.449-160.379C423.682,726.82,419.235,692.713,414.774,658.592z M520.373,854.421
			c-0.013,16.277-0.013,32.555-0.013,48.832c3.724-0.013,7.448-0.013,11.172-0.013c0-4.921,0.013-9.83,0-14.738
			c2.974-2.737,5.974-5.461,8.974-8.158c5.066,7.619,10.119,15.238,15.146,22.883c4.803,0.026,9.619,0.026,14.422,0.013
			c-7.264-9.948-14.593-19.857-21.857-29.805c6.922-6.343,13.869-12.659,20.778-19.014c-4.987-0.013-9.974-0.013-14.962,0.013
			c-7.5,7.198-14.988,14.396-22.488,21.594c-0.013-7.211,0-14.409-0.013-21.607C527.808,854.408,524.084,854.408,520.373,854.421z
			 M575.851,854.421c0,16.277,0,32.542,0,48.819c3.724,0,7.435,0,11.159,0.013c0.026-7.119,0-14.238,0.026-21.357
			c7.237,0,14.475-0.013,21.712,0.013c0,7.106-0.013,14.211,0,21.33c3.724,0.013,7.448,0.013,11.172,0
			c0-16.277,0.013-32.542,0-48.819c-3.724-0.013-7.448-0.013-11.159,0c-0.026,6.408-0.013,12.817-0.013,19.225
			c-7.237,0-14.488,0-21.725,0c0-6.408,0-12.817,0-19.225C583.285,854.408,579.575,854.408,575.851,854.421z M627.565,854.421
			c-0.013,2.737-0.013,5.487,0,8.237c5.435,0.013,10.882,0,16.33,0.013c0,13.514,0,27.041,0,40.569
			c3.724,0.013,7.448,0.013,11.172,0.013c0.013-13.527,0-27.054,0.013-40.582c5.408-0.013,10.83-0.013,16.251-0.013
			c-0.013-2.75-0.013-5.5,0-8.237C656.738,854.408,642.145,854.408,627.565,854.421z M678.555,854.421
			c-0.013,16.277,0,32.542,0,48.819c3.434,0,6.882,0,10.33,0c0-10.685-0.013-21.37,0.013-32.055
			c7.487,10.672,14.869,21.436,22.396,32.094c3.698-0.039,7.395-0.039,11.106-0.039c0-16.277,0-32.542-0.013-48.819
			c-3.448-0.013-6.882-0.013-10.316,0c-0.026,10.83,0.053,21.672-0.039,32.502c-7.698-10.738-15.08-21.699-22.673-32.502
			C685.753,854.408,682.147,854.408,678.555,854.421z"/>
	</g>
	<g>
		<path fill="#273E74" d="M44.17,666.027c7.04-0.421,14.133-1.737,21.172-0.684c6.119,0.987,10.448,5.974,13.198,11.185
			c11.751-1.921,24.725-1.711,35.029,4.974c8.895,5.514,14.554,15.291,15.975,25.541c1.961,11.606,0,24.581-8.172,33.515
			c-8.869,10.185-23.081,13.501-36.081,13.198c-11.396-0.092-23.173-4.54-30.37-13.659c-7.829-10.132-9.501-24.015-6.948-36.292
			c2.619-12.027,12.225-21.515,23.673-25.528c-2.54-3.882-6.869-5.816-11.435-5.75c0.184,2.54,0.382,5.079,0.579,7.632
			c-5.119,0.434-10.251,0.842-15.369,1.25C44.999,676.277,44.591,671.145,44.17,666.027z M79.317,693.555
			c-5.04,1.171-10.027,3.369-13.567,7.264c-6.25,6.803-6.316,17.659-2.145,25.541c3.974,7.211,12.461,10.488,20.357,10.659
			c9.132,0.276,19.172-1.263,26.12-7.724c9.566-8.698,7.895-26.489-3.316-33.068C98.581,691.265,88.37,691.713,79.317,693.555z"/>
	</g>
	<path fill="#273E74" d="M43.064,709.819c0.276,3.211,0.54,6.435,0.816,9.659c-5.027,5.5-10.093,10.988-15.146,16.475
		c-0.487-5.75-0.947-11.488-1.408-17.225C32.564,715.727,37.827,712.806,43.064,709.819z"/>
	<path fill="#273E74" d="M1137.652,733.702c26.41,4.79,52.806,9.619,79.203,14.435c-0.974,5.316-1.934,10.645-2.908,15.975
		c-10.396-1.869-20.778-3.79-31.16-5.658c-1.921,10.435-3.829,20.883-5.711,31.331c10.369,1.908,20.765,3.763,31.16,5.685
		c-0.974,5.329-1.948,10.659-2.921,15.988c-26.396-4.79-52.767-9.659-79.163-14.383c0.934-5.356,1.908-10.698,2.895-16.041
		c11.54,2.079,23.067,4.211,34.621,6.29c1.895-10.448,3.803-20.883,5.698-31.318c-11.54-2.119-23.08-4.198-34.621-6.303
		C1135.691,744.361,1136.665,739.032,1137.652,733.702z"/>
	<path fill="#273E74" d="M53.999,773.626c7.711-1.461,15.422-4.592,23.383-3.408c8.001,1.566,12.593,9.119,15.501,16.08
		c11.356-2.092,23.015-6.698,34.608-3.908c11.251,3.342,16.554,15.383,18.488,26.028c2,9.645,1.737,21.172-5.829,28.476
		c-6.448,6.343-15.856,7.737-24.225,10.053c-14.29,3.277-28.594,6.553-42.884,9.816c-1.211-5.29-2.434-10.566-3.619-15.856
		c17.067-4.013,34.226-7.619,51.214-11.896c5.277-1.158,10.738-4.527,11.764-10.224c0.947-6.343-0.526-13.514-4.974-18.304
		c-4.158-4.132-10.474-2.711-15.593-1.737c-16.541,3.579-32.989,7.566-49.517,11.238c-1.211-5.277-2.421-10.553-3.619-15.83
		c9.356-2.171,18.738-4.263,28.094-6.461c-1.803-3.395-3.698-7.079-7.198-9.014c-2.645-1.684-5.869-1.04-8.79-0.895
		c0.553,2.474,1.118,4.948,1.684,7.435c-5,1.171-10.014,2.316-15.027,3.448C56.289,783.653,55.144,778.64,53.999,773.626z"/>
	<path fill="#273E74" d="M1121.414,813.273c25.844,7.264,51.675,14.606,77.531,21.87c-1.461,5.224-2.934,10.435-4.421,15.659
		c-25.844-7.277-51.675-14.593-77.518-21.87C1118.44,823.708,1119.927,818.484,1121.414,813.273z"/>
	<path fill="#273E74" d="M1090.386,900.24c7.343-19.041,14.698-38.095,22.067-57.122c25.028,9.659,50.056,19.343,75.084,29.002
		c-7.132,18.58-14.317,37.134-21.488,55.701c-4.25-1.632-8.487-3.277-12.698-4.921c5.198-13.514,10.435-27.002,15.646-40.503
		c-5.553-2.158-11.106-4.316-16.659-6.448c-4.869,12.567-9.698,25.146-14.567,37.726c-4.224-1.632-8.435-3.277-12.646-4.908
		c4.843-12.567,9.711-25.133,14.567-37.687c-6.803-2.671-13.632-5.277-20.449-7.908c-5.421,13.975-10.777,27.976-16.212,41.937
		C1098.807,903.49,1094.597,901.872,1090.386,900.24z"/>
	<g>
		<path fill="#273E74" d="M138.334,872.08c4.961-8.619,10.738-16.738,16.133-25.081c2.684,5.882,5.395,11.777,8.079,17.685
			c-5.974,10.198-12.804,19.922-18.093,30.502c-2.934,5.698,0.487,11.685,2.816,16.896c10.211-4.658,20.383-9.382,30.607-14.001
			c2.25,4.921,4.513,9.843,6.764,14.777c-24.41,11.198-48.832,22.383-73.255,33.555c-5.303-11.672-10.764-23.265-15.962-34.989
			c-2.5-6.277-5.395-13.146-3.632-20.001c2.934-11.014,15.264-18.238,26.331-16.264c6.75,1.197,11.882,6.29,15.541,11.803
			C134.307,881.765,135.65,876.607,138.334,872.08z M106.832,898.056c-0.895,3.277,0.526,6.553,1.803,9.527
			c2.724,6.145,5.566,12.251,8.382,18.37c6.198-2.829,12.382-5.658,18.567-8.501c-3.698-7.698-6.685-15.777-11.33-22.962
			C119.925,887.897,108.674,890.858,106.832,898.056z"/>
	</g>
	<path fill="#273E74" d="M1183.655,895.082c1.474-3.882,2.961-7.751,4.5-11.593c3.645,5.527,7.329,11.04,10.935,16.593
		c-1.737,4.408-3.434,8.843-5.132,13.264c-6.408,1.605-12.803,3.198-19.199,4.777c1.461-3.869,2.948-7.737,4.474-11.58
		c3.29-1,6.579-2,9.895-2.987C1187.3,900.714,1185.471,897.898,1183.655,895.082z"/>
	<path fill="#273E74" d="M1075.832,925.702c2.658-4.277,5.356-8.514,8.066-12.764c22.686,14.369,45.371,28.739,68.044,43.135
		c-2.829,4.448-5.645,8.922-8.487,13.369c-21.015-0.316-42.016-0.658-63.031-0.947c15.119,9.632,30.278,19.185,45.398,28.805
		c-2.698,4.237-5.382,8.474-8.066,12.725c-22.712-14.33-45.371-28.739-68.057-43.095c2.803-4.566,5.79-9.014,8.487-13.633
		c20.646-0.184,41.305,0.434,61.965,0.5C1105.374,944.414,1090.583,935.084,1075.832,925.702z"/>
	<path fill="#273E74" d="M146.019,977.956c18.87-11.896,37.713-23.831,56.583-35.713c2.921,4.566,5.803,9.159,8.685,13.751
		c-18.857,11.909-37.726,23.804-56.583,35.726c4.224,6.737,8.501,13.461,12.725,20.212c-3.829,2.434-7.672,4.856-11.501,7.29
		c-11.396-18.054-22.791-36.081-34.16-54.148c3.816-2.448,7.658-4.869,11.501-7.277
		C137.518,964.507,141.742,971.245,146.019,977.956z"/>
	<g>
		<path fill="#273E74" d="M507.57,978.364c11.975-2.342,25.515-1.013,35.318,6.803c7.606,5.908,12.053,15.119,13.343,24.541
			c1.974,13.711,0.132,28.949-9.33,39.7c4.053,2.763,8.435,5,12.988,6.829c-2.04,3.895-4.04,7.803-6.027,11.724
			c-6.685-2.092-12.185-6.474-17.975-10.211c-11.54,4.632-25.002,4.685-36.437-0.276c-10.435-4.606-17.606-14.856-19.659-25.923
			c-2.092-11.448-1.711-23.804,3.342-34.45C487.726,987.43,497.108,980.39,507.57,978.364z M501.504,998.378
			c-5.448,6.343-6.316,15.185-6.066,23.212c0.237,7.619,2.198,15.909,8.29,21.054c5.421,4.948,13.435,5.908,20.317,3.856
			c-3.211-2.119-6.645-3.829-10.172-5.303c1.513-3.158,3.026-6.303,4.553-9.435c5.54,2.04,10.711,4.974,15.488,8.448
			c4.053-5.329,6-11.961,6.171-18.607c0.25-7.843-0.539-16.422-5.619-22.778C526.624,988.891,509.622,988.706,501.504,998.378z"/>
	</g>
	<path fill="#273E74" d="M581.654,985.101c11.067-8.685,26.515-9.316,39.674-5.882c10.238,2.698,17.857,11.659,20.067,21.844
		c-5.382,1.04-10.751,2.026-16.133,3.053c-1.869-5.053-5.382-9.738-10.632-11.527c-8.461-2.842-18.949-1.158-25.015,5.764
		c-4.395,4.895-5.843,11.685-6.066,18.093c-0.158,6.514,0.434,13.303,3.448,19.199c2.948,5.908,8.843,10.264,15.396,11.238
		c8.356,1.448,16.777-1.724,23.502-6.54c-0.066-3.448-0.079-6.882-0.066-10.303c-6.224-0.013-12.435,0-18.646-0.013
		c-0.013-4.579-0.013-9.159,0-13.725c11.698-0.013,23.396-0.013,35.094,0c-0.013,10.856,0.026,21.712-0.026,32.568
		c-12.698,10.303-30.239,14.712-46.227,11.001c-9.487-2.158-18.264-8.04-23.107-16.593
		C562.784,1025.064,564.574,998.602,581.654,985.101z"/>
	<path fill="#273E74" d="M801.142,978.364c11.106-2.395,23.844-0.934,32.647,6.79c4.856,4.027,7.5,9.948,9.409,15.83
		c-5.342,1.303-10.685,2.592-16.014,3.882c-1.237-3.316-2.526-6.803-5.29-9.159c-7.777-7.198-21.712-5.382-27.541,3.434
		c-4.369,6.593-4.671,14.896-4.5,22.567c0.342,6.869,1.29,14.409,6.119,19.725c6.185,6.987,18.251,7.922,25.094,1.382
		c3.684-3.355,5.211-8.264,6.632-12.869c5.224,1.645,10.461,3.25,15.698,4.895c-2.171,7.422-5.685,14.856-11.948,19.686
		c-8.593,6.685-20.357,7.829-30.739,5.658c-12.882-2.777-23.12-13.725-26.068-26.423c-2.5-10.882-2.211-22.581,1.5-33.16
		C779.996,989.588,789.668,980.772,801.142,978.364z"/>
	<g>
		<path fill="#273E74" d="M319.281,978.693c10.185-0.039,20.383-0.026,30.581-0.013c7.264,0.053,14.962,0.513,21.251,4.553
			c9.461,5.895,14.29,17.014,15.33,27.791c1.355,12.659,0.316,26.581-7.514,37.134c-5.685,7.908-15.698,11.396-25.133,11.58
			c-11.488,0.224-22.988,0.026-34.476,0.079c-0.013-11.79,0-23.581,0-35.371c-2.79-0.013-5.566-0.013-8.343,0
			c0.013-3.434,0.013-6.869,0.026-10.277c2.763-0.013,5.527-0.026,8.303-0.013C319.294,1002.326,319.36,990.509,319.281,978.693z
			 M335.65,992.404c-0.026,7.25-0.013,14.501,0,21.752c5.764,0,11.54-0.013,17.317,0.013c0,3.408,0,6.829,0.026,10.264
			c-5.79,0.013-11.567,0-17.356,0.013c0.013,7.224,0,14.435,0.013,21.659c8.33-0.408,17.08,1.171,25.068-1.829
			c7.948-3.684,9.001-13.606,9.395-21.304c0.132-9.343,0.447-20.804-7.658-27.173C354.546,990.693,344.532,992.983,335.65,992.404z"
			/>
	</g>
	<path fill="#273E74" d="M400.641,978.679c5.435-0.013,10.869-0.013,16.304,0c0.026,10.645-0.013,21.291,0.026,31.936
		c10.619-0.026,21.225,0,31.844-0.026c0.013-10.632,0-21.278,0.013-31.91c5.435-0.013,10.869-0.013,16.317,0
		c0.013,27.041,0,54.096,0.013,81.137c-5.448,0.013-10.895,0.013-16.343,0c0-11.83,0.013-23.659,0-35.476
		c-10.619-0.013-21.238-0.013-31.857-0.013c0,11.83,0.013,23.66,0,35.502c-5.448,0-10.895,0-16.33-0.013
		C400.628,1032.775,400.615,1005.721,400.641,978.679z"/>
	<path fill="#273E74" d="M694.622,978.679c5.435-0.013,10.869-0.026,16.317,0.013c0,10.632-0.013,21.265,0,31.91
		c10.619,0,21.238,0,31.857,0c0.013-10.645,0-21.278,0-31.91c5.435-0.039,10.869-0.026,16.317-0.013
		c0.026,27.041,0.013,54.096,0.013,81.137c-5.448,0.013-10.882,0.013-16.33,0c0-11.817,0-23.646,0.013-35.476
		c-10.632-0.013-21.251-0.026-31.884,0c0.013,11.83,0.013,23.66,0.013,35.489c-5.448,0-10.896,0-16.33,0
		C694.609,1032.775,694.596,1005.721,694.622,978.679z"/>
	<path fill="#273E74" d="M857.028,978.679c8.158-0.013,16.33-0.013,24.489,0c4.829,18.435,9.672,36.871,14.527,55.306
		c4.842-18.435,9.566-36.884,14.409-55.306c8.172-0.013,16.343-0.013,24.515,0c0.026,27.041,0,54.096,0.013,81.137
		c-5.04,0.013-10.08,0.013-15.106,0c-0.039-21.199-0.013-42.398-0.079-63.583c-5.421,21.172-10.646,42.398-15.988,63.596
		c-5.237,0-10.474,0-15.698,0c-5.198-21.186-10.764-42.292-15.672-63.544c-0.605,21.173-0.145,42.358-0.316,63.531
		c-5.04,0.013-10.08,0.013-15.093,0C857.041,1032.775,857.028,1005.721,857.028,978.679z"/>
	<path fill="#273E74" d="M655.238,1022.656c10.132-0.013,20.278-0.013,30.423,0c0,5.158,0,10.317,0,15.488
		c-10.132,0.053-20.278,0.013-30.423,0.026C655.211,1032.986,655.211,1027.814,655.238,1022.656z"/>
</g>
<g>
	<g>
		<path fill="#FEFEFE" d="M562.863,471.5c2-4.658,6.908-7.869,12.014-7.5c9.172,0.513,16.817,6.408,23.567,12.093
			c6.777-5.724,14.501-11.672,23.738-12.093c5.092-0.303,9.935,2.974,11.896,7.632c3.553,8.027,2.329,17.146,0.842,25.528
			c8.066,2.908,16.646,6.461,21.817,13.672c3.25,4.342,3.171,10.659-0.132,14.962c-5.211,7.079-13.685,10.593-21.686,13.475
			c1.513,8.448,2.724,17.659-0.934,25.739c-2.145,5-7.658,8.093-13.04,7.369c-8.737-1-16.014-6.54-22.502-12.04
			c-6.474,5.461-13.685,10.974-22.357,12.027c-5.5,0.803-11.132-2.369-13.251-7.487c-3.606-8.053-2.369-17.212-0.882-25.62
			c-8.001-2.855-16.435-6.369-21.646-13.422c-3.355-4.316-3.434-10.711-0.118-15.067c5.185-7.172,13.725-10.711,21.765-13.619
			C560.455,488.725,559.244,479.567,562.863,471.5z M567.89,476.422c-3.316,5.948-2.711,13.054-2.066,19.567
			c5.882-1.5,11.856-2.566,17.883-3.303c3.632-4.842,7.553-9.461,11.777-13.804c-5.303-3.908-11.198-7.908-18.028-8.027
			C573.535,470.737,569.732,472.974,567.89,476.422z M601.405,478.882c4.211,4.342,8.132,8.948,11.764,13.804
			c6.014,0.737,11.988,1.803,17.857,3.316c0.684-6.474,1.25-13.501-1.948-19.436c-1.816-3.474-5.592-5.79-9.514-5.711
			C612.669,470.908,606.734,474.948,601.405,478.882z M588.312,492.278c6.737-0.395,13.514-0.408,20.265,0
			c-3.184-3.803-6.527-7.461-10.132-10.843C594.826,484.817,591.483,488.475,588.312,492.278z M585.628,495.897
			c-5.079,6.935-9.316,14.448-12.909,22.252c3.711,7.764,7.54,15.83,13.251,22.278c8.356,1.132,16.856,0.763,25.252,0.105
			c5.132-6.948,9.395-14.501,12.961-22.357c-3.606-7.816-7.856-15.33-12.922-22.265
			C602.734,495.094,594.155,495.094,585.628,495.897z M566.6,499.818c1.105,4.816,2.592,9.527,4.329,14.159
			c3.013-6.027,6.382-11.869,10.106-17.488C576.153,497.305,571.324,498.384,566.6,499.818z M615.84,496.489
			c3.724,5.619,7.093,11.461,10.106,17.501c1.737-4.632,3.224-9.356,4.329-14.172C625.538,498.384,620.709,497.305,615.84,496.489z
			 M547.125,512.371c-2.355,3.566-2.263,8.435,0.171,11.948c3.619,5.474,9.764,8.448,15.606,10.988
			c1.645-5.843,3.711-11.553,6.066-17.146c-2.408-5.54-4.421-11.238-6.066-17.041C556.968,503.687,550.717,506.726,547.125,512.371z
			 M627.92,518.135c2.316,5.619,4.421,11.317,6.053,17.185c5.895-2.579,12.132-5.592,15.738-11.185
			c2.303-3.487,2.342-8.237,0.053-11.738c-3.579-5.658-9.856-8.711-15.791-11.277C632.328,506.924,630.315,512.608,627.92,518.135z
			 M566.587,536.584c4.737,1.461,9.58,2.526,14.461,3.356c-3.737-5.632-7.132-11.488-10.119-17.541
			C569.219,527.043,567.719,531.767,566.587,536.584z M625.959,522.438c-3.026,6.027-6.408,11.869-10.106,17.514
			c4.842-0.868,9.659-1.921,14.369-3.316C629.21,531.781,627.67,527.07,625.959,522.438z M565.811,540.452
			c-0.605,6.237-1.171,12.948,1.658,18.778c1.737,3.816,5.724,6.474,9.948,6.343c6.856-0.105,12.738-4.119,18.067-8.014
			c-4.211-4.342-8.132-8.961-11.751-13.79C577.693,542.992,571.706,541.926,565.811,540.452z M613.143,543.768
			c-3.619,4.842-7.54,9.448-11.751,13.777c5.342,3.908,11.264,7.961,18.146,8.027c4.224,0.105,8.172-2.592,9.909-6.395
			c2.777-5.829,2.237-12.501,1.592-18.725C625.143,541.939,619.156,542.992,613.143,543.768z M588.325,544.163
			c3.158,3.79,6.487,7.448,10.119,10.803c3.606-3.356,6.948-7,10.093-10.803C601.8,544.531,595.049,544.545,588.325,544.163z"/>
	</g>
	<path fill="#FEFEFE" d="M593.681,508.963c6.79-3.934,16.08,2.29,15.133,10.04c-0.25,7.422-9.501,12.251-15.725,8.132
		C586.193,523.425,586.549,512.227,593.681,508.963z"/>
	<path fill="#FEFEFE" d="M520.373,854.421c3.711-0.013,7.435-0.013,11.159,0c0.013,7.198,0,14.396,0.013,21.607
		c7.5-7.198,14.988-14.396,22.488-21.594c4.987-0.026,9.974-0.026,14.962-0.013c-6.908,6.356-13.856,12.672-20.778,19.014
		c7.264,9.948,14.593,19.857,21.857,29.805c-4.803,0.013-9.619,0.013-14.422-0.013c-5.027-7.645-10.08-15.264-15.146-22.883
		c-3,2.698-6,5.421-8.974,8.158c0.013,4.908,0,9.816,0,14.738c-3.724,0-7.448,0-11.172,0.013
		C520.36,886.976,520.36,870.698,520.373,854.421z"/>
	<path fill="#FEFEFE" d="M575.851,854.421c3.724-0.013,7.435-0.013,11.172,0c0,6.408,0,12.817,0,19.225c7.237,0,14.488,0,21.725,0
		c0-6.408-0.013-12.817,0.013-19.225c3.711-0.013,7.435-0.013,11.159,0c0.013,16.277,0,32.542,0,48.819
		c-3.724,0.013-7.448,0.013-11.172,0c-0.013-7.119,0-14.225,0-21.33c-7.237-0.026-14.475-0.013-21.712-0.013
		c-0.026,7.119,0,14.238-0.026,21.357c-3.724-0.013-7.435-0.013-11.159-0.013C575.851,886.963,575.851,870.698,575.851,854.421z"/>
	<path fill="#FEFEFE" d="M627.565,854.421c14.58-0.013,29.173-0.013,43.766,0c-0.013,2.737-0.013,5.487,0,8.237
		c-5.421,0-10.843,0-16.251,0.013c-0.013,13.527,0,27.054-0.013,40.582c-3.724,0-7.448,0-11.172-0.013c0-13.527,0-27.055,0-40.569
		c-5.448-0.013-10.895,0-16.33-0.013C627.552,859.908,627.552,857.158,627.565,854.421z"/>
	<path fill="#FEFEFE" d="M678.555,854.421c3.592-0.013,7.198-0.013,10.803,0c7.593,10.803,14.975,21.765,22.673,32.502
		c0.092-10.83,0.013-21.673,0.039-32.502c3.434-0.013,6.869-0.013,10.316,0c0.013,16.277,0.013,32.542,0.013,48.819
		c-3.711,0-7.408,0-11.106,0.039c-7.527-10.659-14.909-21.423-22.396-32.094c-0.026,10.685-0.013,21.37-0.013,32.055
		c-3.448,0-6.895,0-10.33,0C678.555,886.963,678.542,870.698,678.555,854.421z"/>
</g>
</svg>
